{"title":"Breathing.[Atmen].2011.DVDRip.AC3.HORiZON-ArtSubs","uid":7235206,"size":1569443840,"categoryP":"video","categoryS":"movies","magnet":"?xt=urn:btih:4d1b70e429a5d20cc9481865aa27e66129a712ed&amp;dn=Breathing.%5BAtmen%5D.2011.DVDRip.AC3.HORiZON-ArtSubs&amp;tr=udp%3A%2F%2Ftracker.openbittorrent.com%3A80&amp;tr=udp%3A%2F%2Fopen.demonii.com%3A1337&amp;tr=udp%3A%2F%2Ftracker.coppersurfer.tk%3A6969&amp;tr=udp%3A%2F%2Fexodus.desync.com%3A6969","seeders":2,"leechers":2,"uploader":"lletaif","files":1,"time":1335970152,"description":"Title: Atmen \n\nCountry: Austria (2011)\n\nLanguage: German | English\n\nDirector: Karl Markovics\n\nWriter: Karl Markovics (screenplay)\n\nStars: Thomas Schubert, Karin Lischka and Georg Friedrich\n\nPlot: A 19-year-old is coming out of prison and trying to build a new life but he can't deal with his guilt.\n\nRip Specs:\n\nGeneral\nComplete name                    : Breathing.[Atmen].2011.DVDRip.AC3.HORiZON-ArtSubs.avi\nFormat                           : AVI\nFormat/Info                      : Audio Video Interleave\nFile size                        : 1.46 GiB\nDuration                         : 1h 29mn\nOverall bit rate                 : 2 328 Kbps\nWriting application              : FairUse Wizard - http://fairusewizard.com\nWriting library                  : The best and REALLY easy backup tool\n\nVideo\nID                               : 0\nFormat                           : MPEG-4 Visual\nFormat profile                   : Advanced Simple@L5\nFormat settings, BVOP            : 1\nFormat settings, QPel            : No\nFormat settings, GMC             : No warppoints\nFormat settings, Matrix          : Default (MPEG)\nMuxing mode                      : Packed bitstream\nCodec ID                         : XVID\nCodec ID/Hint                    : XviD\nDuration                         : 1h 29mn\nBit rate                         : 1 871 Kbps\nWidth                            : 688 pixels\nHeight                           : 288 pixels\nDisplay aspect ratio             : 2.40:1\nFrame rate                       : 25.000 fps\nColor space                      : YUV\nChroma subsampling               : 4:2:0\nBit depth                        : 8 bits\nScan type                        : Progressive\nCompression mode                 : Lossy\nBits/(Pixel*Frame)               : 0.378\nStream size                      : 1.17 GiB (80%)\nWriting library                  : XviD 1.2.0.dev47 (UTC 2006-11-01)\n\nAudio\nID                               : 1\nFormat                           : AC-3\nFormat/Info                      : Audio Coding 3\nMode extension                   : CM (complete main)\nCodec ID                         : 2000\nDuration                         : 1h 29mn\nBit rate mode                    : Constant\nBit rate                         : 448 Kbps\nChannel(s)                       : 6 channels\nChannel positions                : Front: L C R, Side: L R, LFE\nSampling rate                    : 48.0 KHz\nBit depth                        : 16 bits\nCompression mode                 : Lossy\nStream size                      : 288 MiB (19%)\nAlignment                        : Split accross interleaves\nInterleave, duration             : 40 ms (1.00 video frame)\nInterleave, preload duration     : 500 ms\n\n","torrent":{"xt":"urn:btih:4d1b70e429a5d20cc9481865aa27e66129a712ed","amp;dn":"Breathing.%5BAtmen%5D.2011.DVDRip.AC3.HORiZON-ArtSubs","amp;tr":["udp%3A%2F%2Ftracker.openbittorrent.com%3A80","udp%3A%2F%2Fopen.demonii.com%3A1337","udp%3A%2F%2Ftracker.coppersurfer.tk%3A6969","udp%3A%2F%2Fexodus.desync.com%3A6969"],"infoHash":"4d1b70e429a5d20cc9481865aa27e66129a712ed","infoHashBuffer":{"type":"Buffer","data":[77,27,112,228,41,165,210,12,201,72,24,101,170,39,230,97,41,167,18,237]},"announce":[],"urlList":[]}}